<mxfile host="65bd71144e">
    <diagram id="IO2YerHIlbNKaPUgLhUy" name="Page-1">
        <mxGraphModel dx="770" dy="611" grid="1" gridSize="10" guides="1" tooltips="1" connect="1" arrows="1" fold="1" page="1" pageScale="1" pageWidth="850" pageHeight="1100" math="0" shadow="0">
            <root>
                <mxCell id="0"/>
                <mxCell id="1" parent="0"/>
                <mxCell id="8" value="Update,&lt;br&gt;Delete&lt;br&gt;Request" style="edgeStyle=none;html=1;exitX=0.25;exitY=1;exitDx=0;exitDy=0;entryX=0.25;entryY=0;entryDx=0;entryDy=0;" edge="1" parent="1">
                    <mxGeometry relative="1" as="geometry">
                        <mxPoint x="319" y="180" as="sourcePoint"/>
                        <mxPoint x="306.5" y="280" as="targetPoint"/>
                    </mxGeometry>
                </mxCell>
                <mxCell id="2" value="quiz display.php" style="whiteSpace=wrap;html=1;" vertex="1" parent="1">
                    <mxGeometry x="290" y="120" width="120" height="60" as="geometry"/>
                </mxCell>
                <mxCell id="9" value="Update,&lt;br&gt;Delete&lt;br&gt;Completed" style="edgeStyle=none;html=1;exitX=0.75;exitY=0;exitDx=0;exitDy=0;entryX=0.75;entryY=1;entryDx=0;entryDy=0;" edge="1" parent="1" source="5" target="2">
                    <mxGeometry relative="1" as="geometry"/>
                </mxCell>
                <mxCell id="10" value="Original quiz" style="edgeStyle=none;html=1;exitX=0.25;exitY=1;exitDx=0;exitDy=0;entryX=0.25;entryY=0;entryDx=0;entryDy=0;" edge="1" parent="1" source="5" target="6">
                    <mxGeometry relative="1" as="geometry"/>
                </mxCell>
                <mxCell id="5" value="quiz update delete.php" style="whiteSpace=wrap;html=1;" vertex="1" parent="1">
                    <mxGeometry x="265" y="280" width="170" height="60" as="geometry"/>
                </mxCell>
                <mxCell id="11" value="Updated quiz" style="edgeStyle=none;html=1;exitX=0.75;exitY=0;exitDx=0;exitDy=0;entryX=0.75;entryY=1;entryDx=0;entryDy=0;" edge="1" parent="1" source="6" target="5">
                    <mxGeometry relative="1" as="geometry"/>
                </mxCell>
                <mxCell id="6" value="quiz update form.php" style="whiteSpace=wrap;html=1;" vertex="1" parent="1">
                    <mxGeometry x="270" y="430" width="160" height="60" as="geometry"/>
                </mxCell>
                <mxCell id="16" value="&lt;div style=&quot;text-align: center;&quot;&gt;&lt;span style=&quot;font-size: 11px; background-color: rgb(24, 20, 29);&quot;&gt;Form to edit the quiz&lt;/span&gt;&lt;/div&gt;" style="text;whiteSpace=wrap;html=1;" vertex="1" parent="1">
                    <mxGeometry x="315" y="490" width="70" height="70" as="geometry"/>
                </mxCell>
                <mxCell id="17" value="&lt;div style=&quot;text-align: center;&quot;&gt;&lt;span style=&quot;font-size: 11px; background-color: rgb(24, 20, 29);&quot;&gt;Creates Session variables for quiz update form&lt;/span&gt;&lt;/div&gt;" style="text;whiteSpace=wrap;html=1;" vertex="1" parent="1">
                    <mxGeometry x="435" y="280" width="95" height="90" as="geometry"/>
                </mxCell>
                <mxCell id="18" value="&lt;div style=&quot;text-align: center;&quot;&gt;&lt;span style=&quot;font-size: 11px; background-color: rgb(24, 20, 29);&quot;&gt;Destroyes the session variables created by quiz update delete&lt;/span&gt;&lt;/div&gt;" style="text;whiteSpace=wrap;html=1;" vertex="1" parent="1">
                    <mxGeometry x="430" y="430" width="100" height="100" as="geometry"/>
                </mxCell>
                <mxCell id="20" style="edgeStyle=none;html=1;exitX=0.25;exitY=0;exitDx=0;exitDy=0;entryX=1;entryY=0.25;entryDx=0;entryDy=0;" edge="1" parent="1" source="19" target="17">
                    <mxGeometry relative="1" as="geometry">
                        <Array as="points">
                            <mxPoint x="570" y="310"/>
                        </Array>
                    </mxGeometry>
                </mxCell>
                <mxCell id="22" style="edgeStyle=none;html=1;exitX=0.25;exitY=1;exitDx=0;exitDy=0;entryX=1;entryY=0.25;entryDx=0;entryDy=0;" edge="1" parent="1" source="19" target="18">
                    <mxGeometry relative="1" as="geometry">
                        <Array as="points">
                            <mxPoint x="570" y="450"/>
                        </Array>
                    </mxGeometry>
                </mxCell>
                <mxCell id="19" value="&lt;div style=&quot;text-align: center;&quot;&gt;&lt;span style=&quot;font-size: 11px; background-color: rgb(24, 20, 29);&quot;&gt;these session variables, checks fo invalid access to quiz form and brings the quiz to the quiz update form&lt;/span&gt;&lt;/div&gt;" style="text;whiteSpace=wrap;html=1;" vertex="1" parent="1">
                    <mxGeometry x="540" y="350" width="180" height="70" as="geometry"/>
                </mxCell>
                <mxCell id="23" value="&lt;div style=&quot;text-align: center;&quot;&gt;&lt;span style=&quot;font-size: 11px; background-color: rgb(24, 20, 29);&quot;&gt;Any invalid access to quiz update delete.php and quiz update form.php will lead to quiz display.php&lt;/span&gt;&lt;/div&gt;&lt;div style=&quot;text-align: center;&quot;&gt;&lt;span style=&quot;font-size: 11px; background-color: rgb(24, 20, 29);&quot;&gt;(there are no valud way to access these 2 files except those shown here)&lt;/span&gt;&lt;/div&gt;" style="text;whiteSpace=wrap;html=1;" vertex="1" parent="1">
                    <mxGeometry x="80" y="320" width="130" height="120" as="geometry"/>
                </mxCell>
            </root>
        </mxGraphModel>
    </diagram>
</mxfile>